<svg width="24" height="24" viewBox="0 0 24 24" fill="none" xmlns="http://www.w3.org/2000/svg">
<g id="bx:phone">
<path id="Vector" d="M17.707 12.293C17.6142 12.2001 17.504 12.1263 17.3827 12.076C17.2613 12.0257 17.1313 11.9998 17 11.9998C16.8686 11.9998 16.7386 12.0257 16.6173 12.076C16.496 12.1263 16.3858 12.2001 16.293 12.293L14.699 13.887C13.96 13.667 12.581 13.167 11.707 12.293C10.833 11.419 10.333 10.04 10.113 9.30102L11.707 7.70702C11.7999 7.61423 11.8737 7.50403 11.924 7.38271C11.9743 7.2614 12.0002 7.13135 12.0002 7.00002C12.0002 6.86868 11.9743 6.73864 11.924 6.61732C11.8737 6.49601 11.7999 6.38581 11.707 6.29302L7.70697 2.29302C7.61418 2.20007 7.50398 2.12633 7.38266 2.07602C7.26135 2.02571 7.1313 1.99982 6.99997 1.99982C6.86863 1.99982 6.73859 2.02571 6.61727 2.07602C6.49596 2.12633 6.38576 2.20007 6.29297 2.29302L3.58097 5.00502C3.20097 5.38502 2.98697 5.90702 2.99497 6.44002C3.01797 7.86402 3.39497 12.81 7.29297 16.708C11.191 20.606 16.137 20.982 17.562 21.006H17.59C18.118 21.006 18.617 20.798 18.995 20.42L21.707 17.708C21.7999 17.6152 21.8737 17.505 21.924 17.3837C21.9743 17.2624 22.0002 17.1324 22.0002 17.001C22.0002 16.8697 21.9743 16.7396 21.924 16.6183C21.8737 16.497 21.7999 16.3868 21.707 16.294L17.707 12.293ZM17.58 19.005C16.332 18.984 12.062 18.649 8.70697 15.293C5.34097 11.927 5.01497 7.64202 4.99497 6.41902L6.99997 4.41402L9.58597 7.00002L8.29297 8.29302C8.17543 8.41047 8.08901 8.55536 8.04152 8.71459C7.99403 8.87382 7.98697 9.04237 8.02097 9.20502C8.04497 9.32002 8.63197 12.047 10.292 13.707C11.952 15.367 14.679 15.954 14.794 15.978C14.9565 16.013 15.1252 16.0065 15.2846 15.9591C15.444 15.9118 15.5889 15.8251 15.706 15.707L17 14.414L19.586 17L17.58 19.005Z" fill="#1979F4"/>
</g>
</svg>
