<svg version="1.2" xmlns="http://www.w3.org/2000/svg" viewBox="0 0 108 160" width="108" height="160">
	<title>PDF-ai</title>
	<style>
		.s0 { fill: #1979f4 } 
		.s1 { fill: #f7931e } 
	</style>
	<g id="Layer 1">
		<g id="&lt;Group&gt;">
			<g id="&lt;Group&gt;">
				<g id="&lt;Group&gt;">
					<path id="&lt;Compound Path&gt;" fill-rule="evenodd" class="s0" d="m244.5 25.8h-12.6v94.9h-0.2v13.5h-24.9v-11q-3.7-4-7.6-5.9-3.9-1.9-7.7-1.9-6.5 0-17.7 7.3-11.1 7.3-15.8 7.3-4.7 0-8.3-3.4-4.2-3.9-8-13.3-0.7-1.6-1-4.4-0.4-2.7-0.4-5.4 0-4.7 0.5-9 0-0.7 0.4-2h5.2v11.4q1.1 4.9 5.4 4.9 4.5 0 10.2-1.7 5.7-1.6 16.9-8.3 8.6-4.8 11.4-5.2 5-0.7 8.7 4.2 3.7 4.8 7.8 18.2v-46.6l-51.5 28.9-5.8-4.5 9.6-7q6.3-3.8 6.3-10 0-5-4-9.2-4-4.1-9.6-4.1-5.6 0-10.2 5.2l-5.5-25.8q9.2-9 18.4-14.2 11.4-6.5 21.7-6.5 9.2 0 16.4 5 8.3 5.8 14.2 18.3v-25.5h37.7zm-37.7 32.1q-4.8-8.1-10.1-12.2-6.6-5.3-13.5-5.3-6.3 0-12.9 4.1-6.6 4.1-14 13.8 0.9-0.2 2.7-0.4 1.7-0.1 2.6-0.1 6.8 0 11.2 3.2 6.3 4.7 6.3 15.7z"/>
					<path id="&lt;Compound Path&gt;" class="s0" d="m308.2 25.8h-15.5q-7.9 2.2-13.1 14.6-5.1 12.5-5.1 28.3 0 12.7 3.8 24 3.8 11.4 11.5 18.2 1.3 1.1 5.8 1.3 4.5 0.2 6.8 0.2v6.5h-12.6q-5.6 0-12.3-2.7-2.1-0.9-5.7-2.9-11-5.8-16.5-16.7-5.5-10.9-5.5-24.1 0-15.7 7.3-28.8 7.3-13.2 19.7-17.9h-35.9v-5.8h67.3z"/>
					<path id="&lt;Compound Path&gt;" class="s0" d="m407.2 25.8h-9.9v94.9h-24.5q-25.6 0-41.3-10.3-15.7-10.3-15.7-26.5-0.4-4 0-5.1l31.7-18.9q4.2-3.6 4.2-5.8 0-2.3-5.8-2.3-5.8 0-14.4 1.8-8.7 1.8-18.1 4.3 0.4-4.9 1-10.1 0.7-5.2 2.5-15.1 2.3-1.8 4.8-3.8 4-2.9 7.2-2.9 2.6 0 7.1 2.5 11.2 6.9 15.7 10.7 8.1 6.8 8.1 12.9 0 2.9-1.5 5.4-1.4 2.4-4.7 5.1l-11.1 7.4q-0.2 1.1-0.3 2.4-0.1 1.4-0.1 3.5 0 11 2.5 19 4 12.2 13.4 17.1 2 2 6.5 3 4.5 1 8.1 1v-90.2h-73.6v-5.8h108.2zm-55.9 104.6q1.1 2.2 1.1 4 0 2.5-2.3 4.1-2.2 1.5-5.6 1.5-3.8 0-7.6-2-3.8-2-5.8-5.8-1.1-2.1-1.1-3.9 0-2.6 2.3-4.1 2.2-1.5 5.7-1.5 3.7 0 7.5 2 3.8 1.9 5.8 5.7z"/>
					<path id="&lt;Compound Path&gt;" class="s0" d="m453.2 25.8h-13.3v94.7h-24.9l0.1-94.7h-15.5v-5.8h53.6z"/>
					<path id="&lt;Compound Path&gt;" class="s0" d="m590.4 25.8h-76.1q0 6.3 12.7 10.3 10.4 3.2 23.2 3.2 8 0 10.7-1.2l19.3 22.3q-9.2 10-13.4 19.2-4.1 9.3-4.1 16.9 0 7.8 3.9 12.4 3.8 4.6 9.4 4.6v7.9q-16.8 0-24.9-13-6.8-11-6.8-28.1 0-10.8 2.7-20.4 3-9.7 6.7-12.1-22.8 0-34.1-5-7.1-2.9-11.2-11.6-3.8 0.9-6.6 1.7-2.8 0.8-4.6 1.7-11.4 5.3-11.4 13.2 0 3.8 4.5 6.6 4.4 2.8 10.2 2.8 5.2 0 9.3-2.5 7.2-4.2 13-4.2 4.3 0 7.9 2.1 3.5 2.1 5.9 5.7 2.4 3.6 3.8 8.5 1.4 5 1.4 10.8 0 16.6-10 28.3-11.5 13.7-32.1 13.7-16.7 0-27.7-13.7-9.1-11.6-13.4-29.8-3.2-14-3.2-29v-12.6h5.7v12.2q2.6 19.1 14.1 30.7 10.1 10.1 24.2 13 1.2 0.2 2.3 0.2 1.1 0.1 2 0.1 9.7 0 19.3-4.3 11.2-5.2 11.2-13.2 0-2.8-1.3-5.2-5.9 6.1-12.8 9.3-6.8 3.2-13.7 3.2-11.2 0-20-7.1-8.9-7-11.6-18.4-0.7-2.9-0.7-5 0-7.2 5.6-12.7 7-7 23.1-11.5h-57v-5.8h144.6z"/>
					<path id="&lt;Compound Path&gt;" class="s0" d="m692.5 25.8h-12.4v94.9h-25.4v-34.7q0-10.1-7.8-18.7-7.8-8.7-17-8.7-6.1 0-10.8 4.5-1.4 1.5-3 6.3-1.5 4.9-1.5 10.5 0 4.9 1 9.5 1 4.6 3.5 9.3 1.5 2.9 4.5 3.6 0.6 0 1.5 0.2h11.5v6.6h-17.5q-3.6-0.9-5.7-1.6-13-4.9-17.2-14.4-3.4-8.1-3.4-17.3 0-10.5 4.2-19.3 4.3-8.9 9.7-10.5 2-0.7 4.8-1.1 2.8-0.3 5.1-0.3 14.1 0 27.4 11.7 4.3 3.8 10.7 11.9v-42.4h-72.2v-5.8h110z"/>
				</g>
			</g>
			<g id="&lt;Group&gt;">
				<g id="&lt;Group&gt;">
					<path id="&lt;Path&gt;" class="s1" d="m64.1 147.9c0 5.4-4.5 9.9-10 9.9-5.5 0-9.9-4.5-9.9-9.9 0-5.5 4.4-10 9.9-10 5.5 0 10 4.5 10 10z"/>
				</g>
				<g id="&lt;Group&gt;">
					<path id="&lt;Path&gt;" class="s0" d="m64.1 12.1c0 5.5-4.5 10-10 10-5.5 0-9.9-4.5-9.9-10 0-5.4 4.4-9.9 9.9-9.9 5.5 0 10 4.5 10 9.9z"/>
				</g>
				<g id="&lt;Group&gt;">
					<path id="&lt;Path&gt;" class="s0" d="m54.1 40.3c20 0 36.5 14.8 39.2 34h13.5c-2.8-26.6-25.3-47.4-52.7-47.4-27.3 0-49.9 20.8-52.6 47.4h13.5c2.7-19.2 19.2-34 39.1-34z"/>
				</g>
				<g id="&lt;Group&gt;">
					<path id="&lt;Path&gt;" class="s1" d="m54.1 119.4c-19.9 0-36.4-14.8-39.1-34h-13.5c2.7 26.6 25.3 47.4 52.6 47.4 27.4 0 49.9-20.8 52.7-47.4h-13.5c-2.7 19.2-19.2 34-39.2 34z"/>
				</g>
			</g>
		</g>
	</g>
</svg>