<svg width="18" height="18" viewBox="0 0 18 18" fill="none" xmlns="http://www.w3.org/2000/svg">
<path fill-rule="evenodd" clip-rule="evenodd" d="M9 0C4.02949 0 0 4.02949 0 9C0 13.9705 4.02949 18 9 18C13.9705 18 18 13.9705 18 9C18 4.02949 13.9705 0 9 0ZM1.25581 9C1.25581 7.08781 1.94902 5.33721 3.09767 3.98595L5.77926 6.6667C5.28662 7.34483 5.02191 8.16182 5.02326 9C5.02197 9.83817 5.28667 10.6551 5.77926 11.3333L3.09767 14.014C1.90611 12.6154 1.25297 10.8374 1.25581 9ZM6.6667 5.77926L3.98595 3.09767C5.38458 1.90611 7.16262 1.25297 9 1.25581C10.9122 1.25581 12.6628 1.94902 14.014 3.09767L11.3325 5.77926C10.6546 5.28674 9.83791 5.02203 9 5.02326C8.16182 5.02191 7.34483 5.28662 6.6667 5.77926ZM3.98595 14.9023C5.38458 16.0939 7.16262 16.747 9 16.7442C10.8374 16.747 12.6154 16.0939 14.014 14.9023L11.3325 12.2207C10.6546 12.7133 9.83791 12.978 9 12.9767C8.16182 12.9781 7.34483 12.7134 6.6667 12.2207L3.98595 14.9023ZM12.2207 11.3325L14.9023 14.014C16.0939 12.6154 16.747 10.8374 16.7442 9C16.747 7.16262 16.0939 5.38458 14.9023 3.98595L12.2207 6.6667C12.7133 7.34486 12.978 8.16182 12.9767 9C12.9781 9.83819 12.7134 10.6544 12.2207 11.3325ZM6.27907 9C6.27907 8.27836 6.56574 7.58629 7.07601 7.07601C7.58629 6.56574 8.27836 6.27907 9 6.27907C9.72164 6.27907 10.4137 6.56574 10.924 7.07601C11.4343 7.58629 11.7209 8.27836 11.7209 9C11.7209 9.72164 11.4343 10.4137 10.924 10.924C10.4137 11.4343 9.72164 11.7209 9 11.7209C8.27836 11.7209 7.58629 11.4343 7.07601 10.924C6.56574 10.4137 6.27907 9.72164 6.27907 9Z" fill="#8190A3"/>
</svg>
