<svg width="18" height="17" viewBox="0 0 18 17" fill="none" xmlns="http://www.w3.org/2000/svg">
<path d="M1.5 1H1V1.5V12C1 12.2652 1.10536 12.5196 1.29289 12.7071C1.48043 12.8946 1.73478 13 2 13H8.5V13.5H2C1.60218 13.5 1.22064 13.342 0.93934 13.0607C0.658035 12.7794 0.5 12.3978 0.5 12V0.5H14.5V7.5H14V1.5V1H13.5H1.5ZM11 8V7.5H10.5H9.5H9V8V9V9.5H9.5H10.5H11V9V8ZM14 12.5V10.75H14.5V12.5V13H15H16.75V13.5H15H14.5V14V15.75H14V14V13.5H13.5H11.75V13H13.5H14V12.5ZM3.5 4H11.5V4.5H3.5V4ZM3.5 7.5V7H6.5V7.5H3.5ZM8.5 10V7H9.5H10.5H11.5V10H8.5ZM3.5 10V9.5H6.5V10H3.5Z" stroke="#8190A3"/>
</svg>
