<svg width="17" height="19" viewBox="0 0 17 19" fill="none" xmlns="http://www.w3.org/2000/svg">
<path d="M2.31818 14.9091V7.18182C2.31818 5.5423 2.96948 3.96993 4.12879 2.81061C5.28811 1.6513 6.86048 1 8.5 1C10.1395 1 11.7119 1.6513 12.8712 2.81061C14.0305 3.96993 14.6818 5.5423 14.6818 7.18182V14.9091M0 14.9091H17M10.8182 14.9091V15.6818C10.8182 16.2966 10.5739 16.8863 10.1392 17.321C9.70446 17.7558 9.11482 18 8.5 18C7.88518 18 7.29554 17.7558 6.8608 17.321C6.42605 16.8863 6.18182 16.2966 6.18182 15.6818V14.9091" stroke="#8190A3"/>
</svg>
